<mxfile host="app.diagrams.net" modified="2023-01-03T15:41:01.333Z" agent="5.0 (X11)" etag="sfI45jNqdbm-C6xGrHei" version="20.6.2" type="github">
  <diagram id="lBAjOvPpRmK4NNc1S1s2" name="Page-1">
    <mxGraphModel dx="2036" dy="2224" grid="1" gridSize="10" guides="1" tooltips="1" connect="1" arrows="1" fold="1" page="1" pageScale="1" pageWidth="850" pageHeight="1100" math="0" shadow="0">
      <root>
        <mxCell id="0" />
        <mxCell id="1" parent="0" />
        <mxCell id="LyuNG6FZ20k8KmygJ8tY-31" style="edgeStyle=orthogonalEdgeStyle;rounded=0;orthogonalLoop=1;jettySize=auto;html=1;entryX=0;entryY=0.5;entryDx=0;entryDy=0;entryPerimeter=0;startArrow=none;" parent="1" source="LyuNG6FZ20k8KmygJ8tY-36" target="LyuNG6FZ20k8KmygJ8tY-30" edge="1">
          <mxGeometry relative="1" as="geometry" />
        </mxCell>
        <mxCell id="LyuNG6FZ20k8KmygJ8tY-1" value="" style="shape=mxgraph.cisco.routers.atm_router;sketch=0;html=1;pointerEvents=1;dashed=0;fillColor=#036897;strokeColor=#ffffff;strokeWidth=2;verticalLabelPosition=bottom;verticalAlign=top;align=center;outlineConnect=0;" parent="1" vertex="1">
          <mxGeometry x="440" y="360" width="78" height="53" as="geometry" />
        </mxCell>
        <mxCell id="LyuNG6FZ20k8KmygJ8tY-5" style="edgeStyle=orthogonalEdgeStyle;rounded=0;orthogonalLoop=1;jettySize=auto;html=1;entryX=0;entryY=0.5;entryDx=0;entryDy=0;entryPerimeter=0;" parent="1" source="LyuNG6FZ20k8KmygJ8tY-4" target="LyuNG6FZ20k8KmygJ8tY-1" edge="1">
          <mxGeometry relative="1" as="geometry" />
        </mxCell>
        <mxCell id="LyuNG6FZ20k8KmygJ8tY-4" value="BLUE SPACE" style="ellipse;shape=cloud;whiteSpace=wrap;html=1;" parent="1" vertex="1">
          <mxGeometry x="50" y="250" width="240" height="253.5" as="geometry" />
        </mxCell>
        <mxCell id="LyuNG6FZ20k8KmygJ8tY-15" style="edgeStyle=orthogonalEdgeStyle;rounded=0;orthogonalLoop=1;jettySize=auto;html=1;entryX=0.5;entryY=1;entryDx=0;entryDy=0;entryPerimeter=0;" parent="1" source="LyuNG6FZ20k8KmygJ8tY-6" target="LyuNG6FZ20k8KmygJ8tY-9" edge="1">
          <mxGeometry relative="1" as="geometry" />
        </mxCell>
        <mxCell id="LyuNG6FZ20k8KmygJ8tY-6" value="" style="shape=mxgraph.cisco.computers_and_peripherals.pc;sketch=0;html=1;pointerEvents=1;dashed=0;fillColor=#036897;strokeColor=#ffffff;strokeWidth=2;verticalLabelPosition=bottom;verticalAlign=top;align=center;outlineConnect=0;" parent="1" vertex="1">
          <mxGeometry x="440" y="860" width="78" height="70" as="geometry" />
        </mxCell>
        <mxCell id="LyuNG6FZ20k8KmygJ8tY-12" style="edgeStyle=orthogonalEdgeStyle;rounded=0;orthogonalLoop=1;jettySize=auto;html=1;entryX=0.5;entryY=1;entryDx=0;entryDy=0;entryPerimeter=0;" parent="1" source="LyuNG6FZ20k8KmygJ8tY-9" target="LyuNG6FZ20k8KmygJ8tY-1" edge="1">
          <mxGeometry relative="1" as="geometry" />
        </mxCell>
        <mxCell id="LyuNG6FZ20k8KmygJ8tY-9" value="" style="shape=mxgraph.cisco.routers.atm_router;sketch=0;html=1;pointerEvents=1;dashed=0;fillColor=#036897;strokeColor=#ffffff;strokeWidth=2;verticalLabelPosition=bottom;verticalAlign=top;align=center;outlineConnect=0;" parent="1" vertex="1">
          <mxGeometry x="440" y="640" width="78" height="53" as="geometry" />
        </mxCell>
        <mxCell id="LyuNG6FZ20k8KmygJ8tY-16" value=".62" style="rounded=1;whiteSpace=wrap;html=1;" parent="1" vertex="1">
          <mxGeometry x="419" y="710" width="120" height="20" as="geometry" />
        </mxCell>
        <mxCell id="LyuNG6FZ20k8KmygJ8tY-17" value="10.10.0.40" style="rounded=1;whiteSpace=wrap;html=1;" parent="1" vertex="1">
          <mxGeometry x="419" y="830" width="120" height="20" as="geometry" />
        </mxCell>
        <mxCell id="LyuNG6FZ20k8KmygJ8tY-19" value="10.10.0.32/27" style="rounded=1;whiteSpace=wrap;html=1;" parent="1" vertex="1">
          <mxGeometry x="419" y="770" width="120" height="20" as="geometry" />
        </mxCell>
        <mxCell id="LyuNG6FZ20k8KmygJ8tY-21" value=".254" style="rounded=1;whiteSpace=wrap;html=1;" parent="1" vertex="1">
          <mxGeometry x="419" y="610" width="120" height="20" as="geometry" />
        </mxCell>
        <mxCell id="LyuNG6FZ20k8KmygJ8tY-22" value=".253" style="rounded=1;whiteSpace=wrap;html=1;" parent="1" vertex="1">
          <mxGeometry x="419" y="430" width="120" height="20" as="geometry" />
        </mxCell>
        <mxCell id="LyuNG6FZ20k8KmygJ8tY-23" value="10.10.205.252/30" style="rounded=1;whiteSpace=wrap;html=1;" parent="1" vertex="1">
          <mxGeometry x="419" y="513.25" width="120" height="20" as="geometry" />
        </mxCell>
        <mxCell id="LyuNG6FZ20k8KmygJ8tY-26" value="&lt;div&gt;INTERNET_HOST&lt;/div&gt;&lt;div&gt;Myself&lt;br&gt;&lt;/div&gt;" style="rounded=0;whiteSpace=wrap;html=1;" parent="1" vertex="1">
          <mxGeometry x="419" y="950" width="120" height="60" as="geometry" />
        </mxCell>
        <mxCell id="LyuNG6FZ20k8KmygJ8tY-27" value="&lt;div&gt;INTERFACE&lt;/div&gt;&lt;div&gt;ADDRESS&lt;/div&gt;&lt;div&gt;DESCRIPTION&lt;br&gt;&lt;/div&gt;" style="rounded=0;whiteSpace=wrap;html=1;" parent="1" vertex="1">
          <mxGeometry x="-150" y="680" width="120" height="60" as="geometry" />
        </mxCell>
        <mxCell id="LyuNG6FZ20k8KmygJ8tY-29" style="edgeStyle=orthogonalEdgeStyle;rounded=0;orthogonalLoop=1;jettySize=auto;html=1;entryX=1;entryY=0.5;entryDx=0;entryDy=0;entryPerimeter=0;" parent="1" source="LyuNG6FZ20k8KmygJ8tY-28" target="LyuNG6FZ20k8KmygJ8tY-9" edge="1">
          <mxGeometry relative="1" as="geometry" />
        </mxCell>
        <mxCell id="LyuNG6FZ20k8KmygJ8tY-28" value="PUBLIC NETWORK" style="ellipse;shape=cloud;whiteSpace=wrap;html=1;" parent="1" vertex="1">
          <mxGeometry x="680" y="586.5" width="240" height="160" as="geometry" />
        </mxCell>
        <mxCell id="LyuNG6FZ20k8KmygJ8tY-45" style="edgeStyle=orthogonalEdgeStyle;rounded=0;orthogonalLoop=1;jettySize=auto;html=1;startArrow=none;" parent="1" source="LyuNG6FZ20k8KmygJ8tY-55" edge="1">
          <mxGeometry relative="1" as="geometry">
            <mxPoint x="1121" y="386.5" as="targetPoint" />
          </mxGeometry>
        </mxCell>
        <mxCell id="LyuNG6FZ20k8KmygJ8tY-47" style="edgeStyle=orthogonalEdgeStyle;rounded=0;orthogonalLoop=1;jettySize=auto;html=1;startArrow=none;" parent="1" source="LyuNG6FZ20k8KmygJ8tY-53" target="LyuNG6FZ20k8KmygJ8tY-46" edge="1">
          <mxGeometry relative="1" as="geometry" />
        </mxCell>
        <mxCell id="LyuNG6FZ20k8KmygJ8tY-67" style="edgeStyle=orthogonalEdgeStyle;rounded=0;orthogonalLoop=1;jettySize=auto;html=1;entryX=0.5;entryY=1;entryDx=0;entryDy=0;" parent="1" source="LyuNG6FZ20k8KmygJ8tY-30" target="LyuNG6FZ20k8KmygJ8tY-53" edge="1">
          <mxGeometry relative="1" as="geometry" />
        </mxCell>
        <mxCell id="LyuNG6FZ20k8KmygJ8tY-30" value="" style="shape=mxgraph.cisco.routers.atm_router;sketch=0;html=1;pointerEvents=1;dashed=0;fillColor=#036897;strokeColor=#ffffff;strokeWidth=2;verticalLabelPosition=bottom;verticalAlign=top;align=center;outlineConnect=0;" parent="1" vertex="1">
          <mxGeometry x="772" y="360" width="78" height="53" as="geometry" />
        </mxCell>
        <mxCell id="LyuNG6FZ20k8KmygJ8tY-32" value="INFRA-ROUTER" style="rounded=0;whiteSpace=wrap;html=1;" parent="1" vertex="1">
          <mxGeometry x="429" y="376.5" width="100" height="20" as="geometry" />
        </mxCell>
        <mxCell id="LyuNG6FZ20k8KmygJ8tY-33" value="&lt;div&gt;ports open&lt;/div&gt;&lt;div&gt;21-23 80&lt;br&gt;&lt;/div&gt;" style="rounded=0;whiteSpace=wrap;html=1;" parent="1" vertex="1">
          <mxGeometry x="-140" y="790" width="120" height="60" as="geometry" />
        </mxCell>
        <mxCell id="LyuNG6FZ20k8KmygJ8tY-34" value="&lt;div&gt;RED-SCR&lt;/div&gt;REDNET" style="rounded=0;whiteSpace=wrap;html=1;" parent="1" vertex="1">
          <mxGeometry x="751" y="444" width="120" height="60" as="geometry" />
        </mxCell>
        <mxCell id="LyuNG6FZ20k8KmygJ8tY-36" value=".1" style="rounded=1;whiteSpace=wrap;html=1;" parent="1" vertex="1">
          <mxGeometry x="730" y="376.5" width="30" height="20" as="geometry" />
        </mxCell>
        <mxCell id="LyuNG6FZ20k8KmygJ8tY-37" value="" style="edgeStyle=orthogonalEdgeStyle;rounded=0;orthogonalLoop=1;jettySize=auto;html=1;entryX=0;entryY=0.5;entryDx=0;entryDy=0;entryPerimeter=0;endArrow=none;" parent="1" source="LyuNG6FZ20k8KmygJ8tY-1" target="LyuNG6FZ20k8KmygJ8tY-36" edge="1">
          <mxGeometry relative="1" as="geometry">
            <mxPoint x="518" y="386.5" as="sourcePoint" />
            <mxPoint x="772" y="386.5" as="targetPoint" />
          </mxGeometry>
        </mxCell>
        <mxCell id="LyuNG6FZ20k8KmygJ8tY-40" value=".2" style="rounded=1;whiteSpace=wrap;html=1;" parent="1" vertex="1">
          <mxGeometry x="539" y="376.5" width="30" height="20" as="geometry" />
        </mxCell>
        <mxCell id="LyuNG6FZ20k8KmygJ8tY-41" value="&lt;div&gt;&amp;gt; INTERNET &amp;gt;&lt;/div&gt;" style="rounded=0;whiteSpace=wrap;html=1;" parent="1" vertex="1">
          <mxGeometry x="590" y="360" width="120" height="60" as="geometry" />
        </mxCell>
        <mxCell id="LyuNG6FZ20k8KmygJ8tY-69" style="edgeStyle=orthogonalEdgeStyle;rounded=0;orthogonalLoop=1;jettySize=auto;html=1;startArrow=none;" parent="1" source="LyuNG6FZ20k8KmygJ8tY-53" target="LyuNG6FZ20k8KmygJ8tY-68" edge="1">
          <mxGeometry relative="1" as="geometry" />
        </mxCell>
        <mxCell id="LyuNG6FZ20k8KmygJ8tY-46" value="" style="shape=mxgraph.cisco.routers.atm_router;sketch=0;html=1;pointerEvents=1;dashed=0;fillColor=#036897;strokeColor=#ffffff;strokeWidth=2;verticalLabelPosition=bottom;verticalAlign=top;align=center;outlineConnect=0;" parent="1" vertex="1">
          <mxGeometry x="772" y="-47" width="78" height="53" as="geometry" />
        </mxCell>
        <mxCell id="LyuNG6FZ20k8KmygJ8tY-48" value="10.10.205.252/30" style="rounded=1;whiteSpace=wrap;html=1;" parent="1" vertex="1">
          <mxGeometry x="590" y="430" width="120" height="20" as="geometry" />
        </mxCell>
        <mxCell id="LyuNG6FZ20k8KmygJ8tY-50" value="&lt;div&gt;^ INTERNET ^&lt;/div&gt;&lt;div&gt;eth0&lt;br&gt;&lt;/div&gt;&lt;div&gt;172.16.120.4/30&lt;/div&gt;&lt;div&gt;eth1&lt;/div&gt;&lt;div&gt;\/ REDNET \/&lt;br&gt;&lt;/div&gt;" style="rounded=1;whiteSpace=wrap;html=1;" parent="1" vertex="1">
          <mxGeometry x="751" y="140" width="120" height="100" as="geometry" />
        </mxCell>
        <mxCell id="LyuNG6FZ20k8KmygJ8tY-51" value=".6" style="rounded=1;whiteSpace=wrap;html=1;" parent="1" vertex="1">
          <mxGeometry x="796" y="330" width="30" height="20" as="geometry" />
        </mxCell>
        <mxCell id="LyuNG6FZ20k8KmygJ8tY-55" value="&lt;div&gt;172.16.101.0/27&lt;/div&gt;&lt;div&gt;eth2&lt;/div&gt;&lt;div&gt;&amp;lt; DMZ &amp;lt;&lt;br&gt;&lt;/div&gt;" style="rounded=1;whiteSpace=wrap;html=1;" parent="1" vertex="1">
          <mxGeometry x="920" y="336.5" width="120" height="100" as="geometry" />
        </mxCell>
        <mxCell id="LyuNG6FZ20k8KmygJ8tY-57" value=".30" style="rounded=1;whiteSpace=wrap;html=1;" parent="1" vertex="1">
          <mxGeometry x="860" y="360" width="30" height="20" as="geometry" />
        </mxCell>
        <mxCell id="LyuNG6FZ20k8KmygJ8tY-58" value="" style="edgeStyle=orthogonalEdgeStyle;rounded=0;orthogonalLoop=1;jettySize=auto;html=1;endArrow=none;entryX=0;entryY=0.5;entryDx=0;entryDy=0;" parent="1" source="LyuNG6FZ20k8KmygJ8tY-30" target="LyuNG6FZ20k8KmygJ8tY-55" edge="1">
          <mxGeometry relative="1" as="geometry">
            <mxPoint x="850" y="386.47058823529414" as="sourcePoint" />
            <mxPoint x="920" y="380" as="targetPoint" />
          </mxGeometry>
        </mxCell>
        <mxCell id="LyuNG6FZ20k8KmygJ8tY-61" style="edgeStyle=orthogonalEdgeStyle;rounded=0;orthogonalLoop=1;jettySize=auto;html=1;" parent="1" source="LyuNG6FZ20k8KmygJ8tY-59" edge="1">
          <mxGeometry relative="1" as="geometry">
            <mxPoint x="1200" y="580" as="targetPoint" />
          </mxGeometry>
        </mxCell>
        <mxCell id="LyuNG6FZ20k8KmygJ8tY-59" value="DMZ" style="ellipse;shape=cloud;whiteSpace=wrap;html=1;" parent="1" vertex="1">
          <mxGeometry x="1080" y="306.5" width="240" height="160" as="geometry" />
        </mxCell>
        <mxCell id="LyuNG6FZ20k8KmygJ8tY-62" value="" style="shape=mxgraph.cisco.computers_and_peripherals.pc;sketch=0;html=1;pointerEvents=1;dashed=0;fillColor=#036897;strokeColor=#ffffff;strokeWidth=2;verticalLabelPosition=bottom;verticalAlign=top;align=center;outlineConnect=0;" parent="1" vertex="1">
          <mxGeometry x="1161" y="585" width="78" height="70" as="geometry" />
        </mxCell>
        <mxCell id="LyuNG6FZ20k8KmygJ8tY-63" value=".2" style="rounded=1;whiteSpace=wrap;html=1;" parent="1" vertex="1">
          <mxGeometry x="1209" y="550" width="30" height="20" as="geometry" />
        </mxCell>
        <mxCell id="LyuNG6FZ20k8KmygJ8tY-64" value="&lt;div&gt;PORT 22&lt;/div&gt;&lt;div&gt;User: red-dmz-host-1&lt;br&gt;&lt;/div&gt;" style="rounded=0;whiteSpace=wrap;html=1;" parent="1" vertex="1">
          <mxGeometry x="1150" y="680" width="120" height="60" as="geometry" />
        </mxCell>
        <mxCell id="LyuNG6FZ20k8KmygJ8tY-65" value="&lt;div&gt;PORT 22&lt;/div&gt;&lt;div&gt;User: RED-IPS&lt;br&gt;&lt;/div&gt;" style="rounded=0;whiteSpace=wrap;html=1;" parent="1" vertex="1">
          <mxGeometry x="620" y="-40" width="120" height="60" as="geometry" />
        </mxCell>
        <mxCell id="LyuNG6FZ20k8KmygJ8tY-77" style="edgeStyle=orthogonalEdgeStyle;rounded=0;orthogonalLoop=1;jettySize=auto;html=1;" parent="1" source="LyuNG6FZ20k8KmygJ8tY-68" edge="1">
          <mxGeometry relative="1" as="geometry">
            <mxPoint x="811" y="-623" as="targetPoint" />
          </mxGeometry>
        </mxCell>
        <mxCell id="LyuNG6FZ20k8KmygJ8tY-82" style="edgeStyle=orthogonalEdgeStyle;rounded=0;orthogonalLoop=1;jettySize=auto;html=1;startArrow=none;" parent="1" source="LyuNG6FZ20k8KmygJ8tY-88" target="LyuNG6FZ20k8KmygJ8tY-81" edge="1">
          <mxGeometry relative="1" as="geometry" />
        </mxCell>
        <mxCell id="LyuNG6FZ20k8KmygJ8tY-68" value="" style="shape=mxgraph.cisco.routers.atm_router;sketch=0;html=1;pointerEvents=1;dashed=0;fillColor=#036897;strokeColor=#ffffff;strokeWidth=2;verticalLabelPosition=bottom;verticalAlign=top;align=center;outlineConnect=0;" parent="1" vertex="1">
          <mxGeometry x="772" y="-410" width="78" height="53" as="geometry" />
        </mxCell>
        <mxCell id="LyuNG6FZ20k8KmygJ8tY-70" value="&lt;div&gt;^ INTERNET ^&lt;/div&gt;&lt;div&gt;eth0&lt;br&gt;&lt;/div&gt;&lt;div&gt;172.16.120.8/30&lt;/div&gt;&lt;div&gt;eth1&lt;/div&gt;&lt;div&gt;\/ REDNET \/&lt;br&gt;&lt;/div&gt;" style="rounded=1;whiteSpace=wrap;html=1;" parent="1" vertex="1">
          <mxGeometry x="751" y="-280" width="120" height="100" as="geometry" />
        </mxCell>
        <mxCell id="LyuNG6FZ20k8KmygJ8tY-53" value=".10" style="rounded=1;whiteSpace=wrap;html=1;" parent="1" vertex="1">
          <mxGeometry x="796" y="-90" width="30" height="20" as="geometry" />
        </mxCell>
        <mxCell id="LyuNG6FZ20k8KmygJ8tY-71" value="" style="edgeStyle=orthogonalEdgeStyle;rounded=0;orthogonalLoop=1;jettySize=auto;html=1;endArrow=none;" parent="1" source="LyuNG6FZ20k8KmygJ8tY-46" target="LyuNG6FZ20k8KmygJ8tY-53" edge="1">
          <mxGeometry relative="1" as="geometry">
            <mxPoint x="811" y="-47" as="sourcePoint" />
            <mxPoint x="811" y="-357" as="targetPoint" />
          </mxGeometry>
        </mxCell>
        <mxCell id="LyuNG6FZ20k8KmygJ8tY-73" value="&lt;div&gt;PORT 22&lt;/div&gt;&lt;div&gt;User: RED-POP&lt;br&gt;&lt;/div&gt;" style="rounded=0;whiteSpace=wrap;html=1;" parent="1" vertex="1">
          <mxGeometry x="610" y="-413.5" width="120" height="60" as="geometry" />
        </mxCell>
        <mxCell id="LyuNG6FZ20k8KmygJ8tY-92" style="edgeStyle=orthogonalEdgeStyle;rounded=0;orthogonalLoop=1;jettySize=auto;html=1;" parent="1" source="LyuNG6FZ20k8KmygJ8tY-78" edge="1">
          <mxGeometry relative="1" as="geometry">
            <mxPoint x="811" y="-900" as="targetPoint" />
          </mxGeometry>
        </mxCell>
        <mxCell id="LyuNG6FZ20k8KmygJ8tY-94" style="edgeStyle=orthogonalEdgeStyle;rounded=0;orthogonalLoop=1;jettySize=auto;html=1;" parent="1" source="LyuNG6FZ20k8KmygJ8tY-78" edge="1">
          <mxGeometry relative="1" as="geometry">
            <mxPoint x="450" y="-820" as="targetPoint" />
          </mxGeometry>
        </mxCell>
        <mxCell id="LyuNG6FZ20k8KmygJ8tY-96" style="edgeStyle=orthogonalEdgeStyle;rounded=0;orthogonalLoop=1;jettySize=auto;html=1;" parent="1" edge="1">
          <mxGeometry relative="1" as="geometry">
            <mxPoint x="703" y="-679" as="sourcePoint" />
            <mxPoint x="220" y="-800" as="targetPoint" />
            <Array as="points">
              <mxPoint x="220" y="-679" />
              <mxPoint x="220" y="-799" />
            </Array>
          </mxGeometry>
        </mxCell>
        <mxCell id="LyuNG6FZ20k8KmygJ8tY-98" style="edgeStyle=orthogonalEdgeStyle;rounded=0;orthogonalLoop=1;jettySize=auto;html=1;startArrow=none;" parent="1" source="LyuNG6FZ20k8KmygJ8tY-109" edge="1">
          <mxGeometry relative="1" as="geometry">
            <mxPoint x="1090" y="-830" as="targetPoint" />
          </mxGeometry>
        </mxCell>
        <mxCell id="LyuNG6FZ20k8KmygJ8tY-78" value="REDHOSTS" style="ellipse;shape=cloud;whiteSpace=wrap;html=1;" parent="1" vertex="1">
          <mxGeometry x="691" y="-780" width="240" height="160" as="geometry" />
        </mxCell>
        <mxCell id="LyuNG6FZ20k8KmygJ8tY-79" value=".126" style="rounded=1;whiteSpace=wrap;html=1;" parent="1" vertex="1">
          <mxGeometry x="796" y="-450" width="30" height="20" as="geometry" />
        </mxCell>
        <mxCell id="LyuNG6FZ20k8KmygJ8tY-117" style="edgeStyle=orthogonalEdgeStyle;rounded=0;orthogonalLoop=1;jettySize=auto;html=1;" parent="1" source="LyuNG6FZ20k8KmygJ8tY-81" edge="1">
          <mxGeometry relative="1" as="geometry">
            <mxPoint x="1270" y="-120" as="targetPoint" />
          </mxGeometry>
        </mxCell>
        <mxCell id="LyuNG6FZ20k8KmygJ8tY-81" value="" style="shape=mxgraph.cisco.routers.atm_router;sketch=0;html=1;pointerEvents=1;dashed=0;fillColor=#036897;strokeColor=#ffffff;strokeWidth=2;verticalLabelPosition=bottom;verticalAlign=top;align=center;outlineConnect=0;" parent="1" vertex="1">
          <mxGeometry x="1231" y="-410" width="78" height="53" as="geometry" />
        </mxCell>
        <mxCell id="LyuNG6FZ20k8KmygJ8tY-80" value="&lt;div&gt;&amp;gt; REDINTDMZ &amp;gt;&lt;br&gt;&lt;/div&gt;&lt;div&gt;eth0&lt;br&gt;&lt;/div&gt;&lt;div&gt;172.16.140.4/30&lt;/div&gt;&lt;div&gt;eth2&lt;/div&gt;&lt;div&gt;&amp;lt; REDINTDMZ &amp;lt;&lt;br&gt;&lt;/div&gt;" style="rounded=1;whiteSpace=wrap;html=1;" parent="1" vertex="1">
          <mxGeometry x="990" y="-433.5" width="120" height="100" as="geometry" />
        </mxCell>
        <mxCell id="LyuNG6FZ20k8KmygJ8tY-83" value="" style="edgeStyle=orthogonalEdgeStyle;rounded=0;orthogonalLoop=1;jettySize=auto;html=1;endArrow=none;startArrow=none;" parent="1" source="LyuNG6FZ20k8KmygJ8tY-72" target="LyuNG6FZ20k8KmygJ8tY-80" edge="1">
          <mxGeometry relative="1" as="geometry">
            <mxPoint x="850" y="-383.5" as="sourcePoint" />
            <mxPoint x="1231" y="-383.5" as="targetPoint" />
          </mxGeometry>
        </mxCell>
        <mxCell id="LyuNG6FZ20k8KmygJ8tY-72" value=".6" style="rounded=1;whiteSpace=wrap;html=1;" parent="1" vertex="1">
          <mxGeometry x="873" y="-393.5" width="30" height="20" as="geometry" />
        </mxCell>
        <mxCell id="LyuNG6FZ20k8KmygJ8tY-84" value="" style="edgeStyle=orthogonalEdgeStyle;rounded=0;orthogonalLoop=1;jettySize=auto;html=1;endArrow=none;" parent="1" source="LyuNG6FZ20k8KmygJ8tY-68" target="LyuNG6FZ20k8KmygJ8tY-72" edge="1">
          <mxGeometry relative="1" as="geometry">
            <mxPoint x="850" y="-383.5" as="sourcePoint" />
            <mxPoint x="990" y="-383.5" as="targetPoint" />
          </mxGeometry>
        </mxCell>
        <mxCell id="LyuNG6FZ20k8KmygJ8tY-88" value=".5" style="rounded=1;whiteSpace=wrap;html=1;" parent="1" vertex="1">
          <mxGeometry x="1170" y="-393.5" width="30" height="20" as="geometry" />
        </mxCell>
        <mxCell id="LyuNG6FZ20k8KmygJ8tY-89" value="" style="edgeStyle=orthogonalEdgeStyle;rounded=0;orthogonalLoop=1;jettySize=auto;html=1;startArrow=none;endArrow=none;" parent="1" source="LyuNG6FZ20k8KmygJ8tY-80" target="LyuNG6FZ20k8KmygJ8tY-88" edge="1">
          <mxGeometry relative="1" as="geometry">
            <mxPoint x="1110" y="-383.5" as="sourcePoint" />
            <mxPoint x="1231" y="-383.5" as="targetPoint" />
          </mxGeometry>
        </mxCell>
        <mxCell id="LyuNG6FZ20k8KmygJ8tY-90" value="&lt;div&gt;172.16.182.96/27&lt;/div&gt;&lt;div&gt;eth1&lt;/div&gt;&lt;div&gt;\/ REDHOSTS \/&lt;br&gt;&lt;/div&gt;" style="rounded=1;whiteSpace=wrap;html=1;" parent="1" vertex="1">
          <mxGeometry x="751" y="-590" width="120" height="100" as="geometry" />
        </mxCell>
        <mxCell id="LyuNG6FZ20k8KmygJ8tY-99" value="" style="shape=mxgraph.cisco.computers_and_peripherals.pc;sketch=0;html=1;pointerEvents=1;dashed=0;fillColor=#036897;strokeColor=#ffffff;strokeWidth=2;verticalLabelPosition=bottom;verticalAlign=top;align=center;outlineConnect=0;" parent="1" vertex="1">
          <mxGeometry x="180" y="-880" width="78" height="70" as="geometry" />
        </mxCell>
        <mxCell id="LyuNG6FZ20k8KmygJ8tY-101" value="" style="shape=mxgraph.cisco.computers_and_peripherals.pc;sketch=0;html=1;pointerEvents=1;dashed=0;fillColor=#036897;strokeColor=#ffffff;strokeWidth=2;verticalLabelPosition=bottom;verticalAlign=top;align=center;outlineConnect=0;" parent="1" vertex="1">
          <mxGeometry x="772" y="-980" width="78" height="70" as="geometry" />
        </mxCell>
        <mxCell id="LyuNG6FZ20k8KmygJ8tY-102" value="" style="shape=mxgraph.cisco.computers_and_peripherals.pc;sketch=0;html=1;pointerEvents=1;dashed=0;fillColor=#036897;strokeColor=#ffffff;strokeWidth=2;verticalLabelPosition=bottom;verticalAlign=top;align=center;outlineConnect=0;" parent="1" vertex="1">
          <mxGeometry x="1050" y="-910" width="78" height="70" as="geometry" />
        </mxCell>
        <mxCell id="LyuNG6FZ20k8KmygJ8tY-103" value="" style="shape=mxgraph.cisco.computers_and_peripherals.ibm_tower;sketch=0;html=1;pointerEvents=1;dashed=0;fillColor=#036897;strokeColor=#ffffff;strokeWidth=2;verticalLabelPosition=bottom;verticalAlign=top;align=center;outlineConnect=0;" parent="1" vertex="1">
          <mxGeometry x="429" y="-910" width="42" height="77" as="geometry" />
        </mxCell>
        <mxCell id="LyuNG6FZ20k8KmygJ8tY-105" value=".106" style="rounded=1;whiteSpace=wrap;html=1;" parent="1" vertex="1">
          <mxGeometry x="204" y="-780" width="30" height="20" as="geometry" />
        </mxCell>
        <mxCell id="LyuNG6FZ20k8KmygJ8tY-106" value=".110" style="rounded=1;whiteSpace=wrap;html=1;" parent="1" vertex="1">
          <mxGeometry x="435" y="-790" width="30" height="20" as="geometry" />
        </mxCell>
        <mxCell id="LyuNG6FZ20k8KmygJ8tY-108" value=".114" style="rounded=1;whiteSpace=wrap;html=1;" parent="1" vertex="1">
          <mxGeometry x="796" y="-870" width="30" height="20" as="geometry" />
        </mxCell>
        <mxCell id="LyuNG6FZ20k8KmygJ8tY-109" value=".118" style="rounded=1;whiteSpace=wrap;html=1;" parent="1" vertex="1">
          <mxGeometry x="1074" y="-790" width="30" height="20" as="geometry" />
        </mxCell>
        <mxCell id="LyuNG6FZ20k8KmygJ8tY-110" value="" style="edgeStyle=orthogonalEdgeStyle;rounded=0;orthogonalLoop=1;jettySize=auto;html=1;endArrow=none;" parent="1" source="LyuNG6FZ20k8KmygJ8tY-78" target="LyuNG6FZ20k8KmygJ8tY-109" edge="1">
          <mxGeometry relative="1" as="geometry">
            <mxPoint x="931" y="-700" as="sourcePoint" />
            <mxPoint x="1090" y="-830" as="targetPoint" />
            <Array as="points">
              <mxPoint x="1090" y="-700" />
            </Array>
          </mxGeometry>
        </mxCell>
        <mxCell id="LyuNG6FZ20k8KmygJ8tY-112" value="&lt;div&gt;PORTS&lt;/div&gt;&lt;div&gt;TCP:&lt;/div&gt;&lt;div&gt;22,80,1980,1982,&lt;/div&gt;&lt;div&gt;1988,1989&lt;/div&gt;&lt;div&gt;UDP:&lt;/div&gt;&lt;div&gt;1984,1989&lt;br&gt;&lt;/div&gt;" style="rounded=1;whiteSpace=wrap;html=1;" parent="1" vertex="1">
          <mxGeometry x="494" y="-970" width="120" height="190" as="geometry" />
        </mxCell>
        <mxCell id="LyuNG6FZ20k8KmygJ8tY-113" value="&lt;div&gt;HOSTNAME:&lt;/div&gt;&lt;div&gt;red-host-1&lt;br&gt;&lt;/div&gt;&lt;div&gt;PORTS&lt;/div&gt;&lt;div&gt;TCP:&lt;/div&gt;&lt;div&gt;22,3389&lt;/div&gt;&lt;div&gt;UDP:&lt;/div&gt;&lt;div&gt;&lt;br&gt;&lt;/div&gt;" style="rounded=1;whiteSpace=wrap;html=1;" parent="1" vertex="1">
          <mxGeometry x="270" y="-930" width="120" height="190" as="geometry" />
        </mxCell>
        <mxCell id="LyuNG6FZ20k8KmygJ8tY-114" value="&lt;div&gt;HOSTNAME:&lt;/div&gt;&lt;div&gt;red-host-3&lt;br&gt;&lt;/div&gt;&lt;div&gt;PORTS&lt;/div&gt;&lt;div&gt;TCP:&lt;/div&gt;&lt;div&gt;22&lt;/div&gt;&lt;div&gt;UDP:&lt;/div&gt;&lt;div&gt;&lt;br&gt;&lt;/div&gt;" style="rounded=1;whiteSpace=wrap;html=1;" parent="1" vertex="1">
          <mxGeometry x="860" y="-1040" width="120" height="190" as="geometry" />
        </mxCell>
        <mxCell id="LyuNG6FZ20k8KmygJ8tY-115" value="&lt;div&gt;HOSTNAME:&lt;/div&gt;&lt;div&gt;red-host-4&lt;br&gt;&lt;/div&gt;&lt;div&gt;PORTS&lt;/div&gt;&lt;div&gt;TCP:&lt;/div&gt;&lt;div&gt;22&lt;/div&gt;&lt;div&gt;UDP:&lt;/div&gt;&lt;div&gt;&lt;br&gt;&lt;/div&gt;" style="rounded=1;whiteSpace=wrap;html=1;" parent="1" vertex="1">
          <mxGeometry x="1150" y="-950" width="120" height="190" as="geometry" />
        </mxCell>
        <mxCell id="LyuNG6FZ20k8KmygJ8tY-119" value="&lt;div&gt;^ REDINTDMZ2 ^&lt;br&gt;&lt;/div&gt;&lt;div&gt;eth1&lt;br&gt;&lt;/div&gt;&lt;div&gt;172.16.140.32/27&lt;/div&gt;" style="rounded=1;whiteSpace=wrap;html=1;" parent="1" vertex="1">
          <mxGeometry x="1215" y="-290" width="120" height="100" as="geometry" />
        </mxCell>
        <mxCell id="LyuNG6FZ20k8KmygJ8tY-120" value=".62" style="rounded=1;whiteSpace=wrap;html=1;" parent="1" vertex="1">
          <mxGeometry x="1255" y="-340" width="30" height="20" as="geometry" />
        </mxCell>
        <mxCell id="LyuNG6FZ20k8KmygJ8tY-121" value="REDINTDMZ2" style="ellipse;shape=cloud;whiteSpace=wrap;html=1;" parent="1" vertex="1">
          <mxGeometry x="1150" y="-150" width="240" height="160" as="geometry" />
        </mxCell>
        <mxCell id="3TZ-PgPB0-ztwdqfYQBz-1" value="" style="shape=mxgraph.cisco.computers_and_peripherals.pc;sketch=0;html=1;pointerEvents=1;dashed=0;fillColor=#036897;strokeColor=#ffffff;strokeWidth=2;verticalLabelPosition=bottom;verticalAlign=top;align=center;outlineConnect=0;" vertex="1" parent="1">
          <mxGeometry x="1581" y="80" width="78" height="70" as="geometry" />
        </mxCell>
        <mxCell id="3TZ-PgPB0-ztwdqfYQBz-2" value="&lt;div&gt;PORT 22&lt;/div&gt;&lt;div&gt;User: &lt;br&gt;&lt;/div&gt;" style="rounded=0;whiteSpace=wrap;html=1;" vertex="1" parent="1">
          <mxGeometry x="1570" y="175" width="120" height="60" as="geometry" />
        </mxCell>
        <mxCell id="3TZ-PgPB0-ztwdqfYQBz-3" value="" style="shape=mxgraph.cisco.computers_and_peripherals.pc;sketch=0;html=1;pointerEvents=1;dashed=0;fillColor=#036897;strokeColor=#ffffff;strokeWidth=2;verticalLabelPosition=bottom;verticalAlign=top;align=center;outlineConnect=0;" vertex="1" parent="1">
          <mxGeometry x="1541" y="-202" width="78" height="70" as="geometry" />
        </mxCell>
        <mxCell id="3TZ-PgPB0-ztwdqfYQBz-4" value="&lt;div&gt;PORT 22,80&lt;/div&gt;&lt;div&gt;User: &lt;br&gt;&lt;/div&gt;" style="rounded=0;whiteSpace=wrap;html=1;" vertex="1" parent="1">
          <mxGeometry x="1530" y="-107" width="120" height="60" as="geometry" />
        </mxCell>
        <mxCell id="3TZ-PgPB0-ztwdqfYQBz-6" value="" style="endArrow=classic;html=1;rounded=0;" edge="1" parent="1">
          <mxGeometry width="50" height="50" relative="1" as="geometry">
            <mxPoint x="1380" y="-80" as="sourcePoint" />
            <mxPoint x="1520" y="-130" as="targetPoint" />
          </mxGeometry>
        </mxCell>
        <mxCell id="3TZ-PgPB0-ztwdqfYQBz-7" value="" style="endArrow=classic;html=1;rounded=0;" edge="1" parent="1">
          <mxGeometry width="50" height="50" relative="1" as="geometry">
            <mxPoint x="1380" y="10" as="sourcePoint" />
            <mxPoint x="1530" y="130" as="targetPoint" />
          </mxGeometry>
        </mxCell>
        <mxCell id="3TZ-PgPB0-ztwdqfYQBz-8" value=".33" style="rounded=1;whiteSpace=wrap;html=1;" vertex="1" parent="1">
          <mxGeometry x="1490" y="-100" width="30" height="20" as="geometry" />
        </mxCell>
        <mxCell id="3TZ-PgPB0-ztwdqfYQBz-9" value=".35" style="rounded=1;whiteSpace=wrap;html=1;" vertex="1" parent="1">
          <mxGeometry x="1540" y="80" width="30" height="20" as="geometry" />
        </mxCell>
      </root>
    </mxGraphModel>
  </diagram>
</mxfile>
